<svg xmlns="http://www.w3.org/2000/svg" width="57" height="16" fill="none" viewBox="0 0 57 16"><rect width="56.37" height="16" fill="#D0011B" rx="2"/><path fill="#fff" fill-rule="evenodd" d="M11.14 4.001h-.76a.14.14 0 0 0-.114.055l-.462.5a2 2 0 0 0-.096.101l-.031.036-.207.224c-.381.384-.962.81-1.817.819h-.026c-.898 0-1.494-.498-1.848-.859l-.762-.823A.14.14 0 0 0 4.904 4h-.76a.15.15 0 0 0-.102.042.14.14 0 0 0-.042.1v7.714q0 .059.042.1a.15.15 0 0 0 .102.042h.76a.15.15 0 0 0 .102-.041.14.14 0 0 0 .042-.101v-6.25q.264.225.545.427a3.37 3.37 0 0 0 2.036.692h.033a3.4 3.4 0 0 0 1.926-.611h.006l.067-.052q.087-.063.165-.126l.409-.311v6.23q0 .06.042.101a.15.15 0 0 0 .102.042h.76a.15.15 0 0 0 .102-.042.14.14 0 0 0 .043-.1V4.143a.14.14 0 0 0-.043-.1.15.15 0 0 0-.101-.042m6.544 2.998h-.759a.14.14 0 0 0-.102.042.14.14 0 0 0-.042.1v.473a2.77 2.77 0 0 0-1.744-.648c-1.443 0-2.613 1.127-2.613 2.515 0 1.387 1.17 2.515 2.613 2.515a2.77 2.77 0 0 0 1.744-.636v.496a.14.14 0 0 0 .089.132q.026.01.055.011h.76a.15.15 0 0 0 .102-.042.14.14 0 0 0 .042-.1V7.143A.143.143 0 0 0 17.684 7m-2.6 4.071c-.934 0-1.692-.71-1.692-1.587 0-.876.758-1.586 1.693-1.586.934 0 1.692.71 1.692 1.586s-.758 1.587-1.692 1.587m6.318.146a.14.14 0 0 0-.016-.107.14.14 0 0 0-.088-.064l-.34-.085-.009-.002c-.52-.106-.709-.275-.734-.743V4.143a.14.14 0 0 0-.042-.1.14.14 0 0 0-.102-.04h-.701a.14.14 0 0 0-.102.04.14.14 0 0 0-.042.1v5.815c-.048 1.363.742 1.791 1.475 1.951l.35.087a.15.15 0 0 0 .109-.016.14.14 0 0 0 .066-.087l.08-.302.006-.025.003-.009zm2.578-.107a.14.14 0 0 1 .016.107l-.088.341-.009.034-.08.302a.14.14 0 0 1-.066.087.15.15 0 0 1-.109.016l-.35-.087c-.733-.16-1.522-.588-1.475-1.951V4.143c0-.037.016-.073.043-.1a.14.14 0 0 1 .102-.04h.7q.06 0 .102.04a.14.14 0 0 1 .043.1v6.072c.025.468.214.637.734.743l.01.002.339.085q.057.015.088.064" clip-rule="evenodd"/><path fill="#fff" d="M29.5 3H29v10h.5zm8.892 8.998a3.65 3.65 0 0 1-1.529-.322 3.9 3.9 0 0 1-1.23-.87 4.2 4.2 0 0 1-.832-1.27 4.1 4.1 0 0 1 0-3.084c.192-.471.47-.903.821-1.271s.771-.66 1.236-.865a3.9 3.9 0 0 1 3.065 0 3.9 3.9 0 0 1 1.236.86c.352.366.633.795.827 1.265.204.491.308 1.018.304 1.55 0 .53-.103 1.055-.304 1.545a4 4 0 0 1-2.063 2.147 3.6 3.6 0 0 1-1.532.315m.01-6.168a2 2 0 0 0-.826.17c-.247.111-.47.268-.658.463a2.2 2.2 0 0 0-.437.68c-.106.268-.16.553-.158.84-.002.294.051.585.158.858a2 2 0 0 0 1.1 1.151c.26.111.54.167.822.165a2 2 0 0 0 1.466-.62 2.25 2.25 0 0 0 .59-1.545 2.22 2.22 0 0 0-.59-1.521 2.03 2.03 0 0 0-1.466-.641m4.795-1.716h2.749c.187 0 .354 0 .517.013.38.014.756.088 1.112.22.333.12.637.31.895.553.257.25.458.553.59.886.153.39.228.805.22 1.223a3 3 0 0 1-.402 1.612 2.5 2.5 0 0 1-1.07.955l1.678 2.323h-2.093L45.97 9.893h-.986v2.006a1.79 1.79 0 0 1-1.787-1.789zm2.044 4.016h1.168c.289-.006.568-.104.797-.28a1 1 0 0 0 .322-.826 1 1 0 0 0-.322-.821 1.37 1.37 0 0 0-.81-.287h-.225l-.317-.011h-.87v2.25zm7.129 3.77a1.946 1.946 0 0 1-1.947-1.945V4.114a1.95 1.95 0 0 1 1.947 1.948z"/></svg>